<svg xmlns="http://www.w3.org/2000/svg" width="25.001" height="27.553" viewBox="0 0 25.001 27.553">
  <g id="Сгруппировать_2648" data-name="Сгруппировать 2648" transform="translate(-253 -326)">
    <g id="Сгруппировать_2647" data-name="Сгруппировать 2647" transform="translate(173.993 165)">
      <g id="calendar_1_" data-name="calendar (1)" transform="translate(81.669 162.001)">
        <path id="Контур_454" data-name="Контур 454" d="M265.617,119.742h-.762v-.762h.762Zm-1.27,0h-.762v-.762h.762Zm0,0" transform="translate(-254.479 -115.147)" fill="#fff"/>
        <path id="Контур_460" data-name="Контур 460" d="M114.906,247.609l-6.326,6.326-2.64-2.64-3.061,3.061,5.7,5.7,9.387-9.387Zm-10.95,6.747,1.984-1.984,2.64,2.64,6.326-6.326,1.984,1.984-8.31,8.31Zm0,0" transform="translate(-100.3 -237.551)" fill="#fff"/>
      </g>
      <g id="Эллипс_2524" data-name="Эллипс 2524" transform="translate(99 183)" fill="#fff" stroke="#fff" stroke-width="1">
        <circle cx="1" cy="1" r="1" stroke="none"/>
        <circle cx="1" cy="1" r="0.5" fill="none"/>
      </g>
      <g id="Эллипс_2525" data-name="Эллипс 2525" transform="translate(99 180)" fill="#fff" stroke="#fff" stroke-width="1">
        <circle cx="1" cy="1" r="1" stroke="none"/>
        <circle cx="1" cy="1" r="0.5" fill="none"/>
      </g>
      <g id="Эллипс_2526" data-name="Эллипс 2526" transform="translate(96 180)" fill="#fff" stroke="#fff" stroke-width="1">
        <circle cx="1" cy="1" r="1" stroke="none"/>
        <circle cx="1" cy="1" r="0.5" fill="none"/>
      </g>
      <g id="Эллипс_2527" data-name="Эллипс 2527" transform="translate(96 183)" fill="#fff" stroke="#fff" stroke-width="1">
        <circle cx="1" cy="1" r="1" stroke="none"/>
        <circle cx="1" cy="1" r="0.5" fill="none"/>
      </g>
      <g id="Эллипс_2528" data-name="Эллипс 2528" transform="translate(82 171)" fill="#fff" stroke="#fff" stroke-width="1">
        <circle cx="1" cy="1" r="1" stroke="none"/>
        <circle cx="1" cy="1" r="0.5" fill="none"/>
      </g>
      <g id="Эллипс_2530" data-name="Эллипс 2530" transform="translate(85 171)" fill="#fff" stroke="#fff" stroke-width="1">
        <circle cx="1" cy="1" r="1" stroke="none"/>
        <circle cx="1" cy="1" r="0.5" fill="none"/>
      </g>
      <g id="Эллипс_2529" data-name="Эллипс 2529" transform="translate(82 174)" fill="#fff" stroke="#fff" stroke-width="1">
        <circle cx="1" cy="1" r="1" stroke="none"/>
        <circle cx="1" cy="1" r="0.5" fill="none"/>
      </g>
    </g>
    <path id="Объединение_22" data-name="Объединение 22" d="M-2584-3813.065h-23v0h23v0h0v0Z" transform="translate(2861 4165.618)" fill="none" stroke="#fff" stroke-width="2"/>
    <path id="Объединение_23" data-name="Объединение 23" d="M-2607-3825.5h0Zm24-4.5h0v0Zm-23,0h0v0Z" transform="translate(2860 4158.5)" fill="none" stroke="#fff" stroke-width="2"/>
    <line id="Линия_165" data-name="Линия 165" x1="8" transform="translate(261.5 328.5)" fill="none" stroke="#fff" stroke-width="2"/>
    <line id="Линия_166" data-name="Линия 166" y2="4" transform="translate(260 326)" fill="none" stroke="#fff" stroke-width="2"/>
    <line id="Линия_167" data-name="Линия 167" y2="4" transform="translate(271 326)" fill="none" stroke="#fff" stroke-width="2"/>
  </g>
</svg>
