<svg xmlns="http://www.w3.org/2000/svg" width="30.624" height="29.889" viewBox="0 0 30.624 29.889">
  <g id="layer1" transform="translate(2037.026 -358.146)">
    <path id="path3951" d="M-2012.394,361.66c-.4.321-1.013.483-1.187.962-.325.9.005,1.843-.594,2.416-.95.908-2.493.9-3.6,1.6-.531.335-.5,1.005-.5,1.8a5.112,5.112,0,0,0-.379-1.187,8.8,8.8,0,0,0-1.105-1.311c-.327-.362-.683-.7-1.024-1.044.014.437.057.874.041,1.311-.013.359-.127.721-.161,1.078-.263-.182-.463-.627-.745-.788-.331-.189-.744-.1-1.018-.352-.363-.339-.426-.92-.778-1.269a5.275,5.275,0,0,0-1.187-.675c.177.266.477.483.532.8.109.626-.366,1.347-.062,1.9.341.625,1.313.655,1.761,1.208a4.512,4.512,0,0,1,.492,1.577,3.147,3.147,0,0,1-.8-.39c-.443-.406-.7-.984-1.147-1.392-.623-.575-1.529-.85-2.027-1.535a7.34,7.34,0,0,1-.7-2.212c-.2.812-.691,1.231-.614,2.437.129,2.021,1.85,2.261,2.416,3.236.244.42.4.884.634,1.311a5.138,5.138,0,0,0,.349.491c-.219-.089-.5-.087-.656-.266-.309-.362-.3-.953-.655-1.269a7.372,7.372,0,0,0-1.74-.86,11.154,11.154,0,0,1,.573,1.064c.185.455.208.983.406,1.427a3.534,3.534,0,0,0-1.552.047c-.63.216-.936,1.045-1.577,1.229-.338.1-.57-.5-.921-.512a6.175,6.175,0,0,0-1.659.409,5.266,5.266,0,0,1,.942.246c.337.159.552.581.921.634.593.085,1.182-.255,1.782-.245a.618.618,0,0,1,.2.039,9.7,9.7,0,0,1-2.1,1.272c-.485.176-1.025-.284-1.535-.205a12.433,12.433,0,0,0-2.191.778,6.9,6.9,0,0,1,1.72.081c.845.262,1.49,1.2,2.375,1.188a8.241,8.241,0,0,0,2.849-.986,6.134,6.134,0,0,1-.556,1.375c-.234.308-.655.41-.983.615a6.206,6.206,0,0,0,1.659.123c.449-.09.778-.492,1.2-.679-.22.405-.3.913-.643,1.211-.389.335-1.023.233-1.454.512-1.141.739-.823,1.4-1.085,2.088l1.228-.778c.433-.275,1.043.04,1.535-.1l1.675-.486.007.013c-1.01.483-2.122.318-3.012,1.559-.4.551-.5,1.308-.984,1.781-.543.528-1.517.511-1.986,1.106-.415.527-.184,1.341-.43,1.965-.094.238-.369.355-.553.532a5.238,5.238,0,0,0,1.638-.655c.393-.272.423-.777.819-1.044.535-.362,1.316-.189,1.863-.532.606-.379.865-1.183,1.474-1.556a1.645,1.645,0,0,1,.541-.2,1.243,1.243,0,0,1-.071.3,2.23,2.23,0,0,1-.7.839c-.236.2-.664.163-.819.43a5.611,5.611,0,0,0-.368,1.618,8.767,8.767,0,0,1,1.392-1.352c.454-.276,1.115-.105,1.535-.43.477-.368.6-1.05.983-1.515l.1-.127.277-.334.061.056a3.918,3.918,0,0,0-.322.775,5.351,5.351,0,0,0-.037.777c-.035.218-.231.34-.471.389.172.2.426.123.635.082a.468.468,0,0,0,.21-.115c-.057.228-.1.395-.108.463-.042.268.241.538.164.8-.1.326-.536.474-.635.8a4.9,4.9,0,0,0-.021,1.351c.212-.287.318-.7.635-.86.262-.134.609.129.889.066.012.428.21.854.258,1.285a6.051,6.051,0,0,1,0,.675c.239-.15.564-.213.717-.451.226-.353.139-.844.348-1.208.287-.5.864-.808,1.106-1.331a3.215,3.215,0,0,0,.061-1.188c.116.259.209.531.349.778.108.192.378.313.389.532.013.25-.325.426-.328.676a5.5,5.5,0,0,0,.307,1.29c.109-.273.124-.608.328-.82a.907.907,0,0,1,.164-.133,4.066,4.066,0,0,1,.081,2.18,1.838,1.838,0,0,0,1.169-1.449c0-.01.015-.069.032-.146a2.478,2.478,0,0,1,.294.756c.146.618-.424,1.264-.287,1.884.1.438.659.618.921.983a1.366,1.366,0,0,1,.124.471c.089-.184.295-.351.266-.554-.067-.467-.617-.846-.533-1.31.115-.635.895-1,1.065-1.618a1.591,1.591,0,0,0,.028-.623,1.311,1.311,0,0,1,.361.235c.138.132-.014.382-.021.573.225-.348.637-.632.676-1.044a5.186,5.186,0,0,0-.462-1.5,3.465,3.465,0,0,1,.5.187c.122.056.137.232.205.348.123-.218.354-.406.368-.656a1.78,1.78,0,0,0-.259-.724,8.647,8.647,0,0,0,1.9.929c.428.062.84-.488,1.249-.348.59.2.823,1,1.393,1.249.425.187.928-.013,1.392-.02a1.253,1.253,0,0,1-.532-.451c-.231-.365-.064-.719-.39-1-.454-.4-1.249-.177-1.72-.553a1.758,1.758,0,0,1-.469-.709.726.726,0,0,0,.3.095c.49.031.889-.45,1.372-.532.194-.033.369.136.553.2-.177-.212-.27-.547-.532-.634-.492-.164-1.1.179-1.556-.062-.394-.206-.408-.805-.717-1.126a3.209,3.209,0,0,0-.8-.451,6.037,6.037,0,0,1,1.6.123c.516.186.808.864,1.352.942.789.113,1.558-.38,2.354-.41.321-.012.6.31.922.287a5.771,5.771,0,0,0,1.351-.45,2.594,2.594,0,0,1-.921-.185c-.322-.207-.381-.742-.737-.881-.639-.249-1.424.08-2.048-.205s-.888-1.031-1.454-1.392a1.553,1.553,0,0,0-.487-.192,1.474,1.474,0,0,1,.467-.4c.421-.15.909-.017,1.331-.164a3.731,3.731,0,0,0,.839-.593c-.252.034-.519.194-.757.1-.306-.119-.4-.588-.717-.675l-.072-.017c.152-.126.3-.258.46-.373a2.488,2.488,0,0,1-.451-.2l-.013-.01a.7.7,0,0,1,.136-.052c.476-.124,1.057.239,1.474-.021.553-.344.625-1.181,1.126-1.6.18-.149.464.055.7.082-.246-.136-.456-.409-.737-.409-.471,0-.881.43-1.351.409a1.114,1.114,0,0,1-.3-.056l.009-.005c.3-.194.45-.559.675-.839a2.664,2.664,0,0,1-.922.143,1.362,1.362,0,0,1-.478-.236,3.044,3.044,0,0,0,1.585-.358c.766-.562.872-1.737,1.577-2.375.377-.341,1.072-.077,1.474-.389.338-.262.356-.778.533-1.167-.218.123-.407.338-.656.368-.624.075-1.3-.286-1.884-.061-.692.265-1.01,1.161-1.7,1.433-.66.261-1.442-.1-2.129.082-.2.053-.456.141-.456.141a2.234,2.234,0,0,1,.313-.817c.167-.2.557-.042.737-.226.208-.213.2-.56.307-.839a2.234,2.234,0,0,1-.717.307c-.516.023-1.057-.4-1.535-.205-.314.128-.219.642-.328.963-.061-.218-.333-.484-.185-.656.481-.553,1.414-.62,1.822-1.228.293-.437-.074-1.068.062-1.577.06-.224.328-.328.492-.492-.287.061-.643-.012-.86.185-.272.246-.137.814-.451,1-.641.386-1.507.227-2.17.573-.329.172-.437.6-.656.9-.068-.259-.291-.525-.2-.778.109-.32.561-.417.717-.717a2.979,2.979,0,0,0,.143-.941,4.07,4.07,0,0,1-.635.451c-.331.149-.763.076-1.044.306s-.369.669-.554,1c.014-.341-.152-.741.041-1.023.643-.94,1.886-1.44,2.355-2.478.308-.681-.209-1.485-.226-2.232a12.469,12.469,0,0,1,.143-1.474Z" transform="translate(-3.362 -3.414)" fill="#ff0"/>
    <path id="path3955" d="M-1224.6,777.754a.1.1,0,0,1-.1-.072.1.1,0,0,1,.068-.125.976.976,0,0,1,.136-.026.33.33,0,0,0,.171-.053.7.7,0,0,0,.136-.236.683.683,0,0,1,.25-.35,1.5,1.5,0,0,1,.582-.161,1.264,1.264,0,0,0,.52-.144,1.611,1.611,0,0,0,.438-.511l.057-.088-.046.013a1.4,1.4,0,0,1-.661.072,1.675,1.675,0,0,1-.6-.309,1.188,1.188,0,0,0-.612-.283,1.538,1.538,0,0,0-.787.3,3.629,3.629,0,0,1-.42.225.1.1,0,0,1-.132-.053.1.1,0,0,1,.053-.132,3.435,3.435,0,0,0,.4-.213,1.706,1.706,0,0,1,.894-.327,1.35,1.35,0,0,1,.723.319,1.507,1.507,0,0,0,.524.277,1.229,1.229,0,0,0,.566-.069,2.9,2.9,0,0,1,.319-.075.1.1,0,0,1,.1.049.1.1,0,0,1-.009.113,3.485,3.485,0,0,0-.2.29,1.784,1.784,0,0,1-.5.57,1.43,1.43,0,0,1-.6.174,1.325,1.325,0,0,0-.506.135.523.523,0,0,0-.168.257.856.856,0,0,1-.183.3.48.48,0,0,1-.28.105.778.778,0,0,0-.108.02A.1.1,0,0,1-1224.6,777.754Z" transform="translate(-788.166 -405.177)"/>
    <path id="path3957" d="M-1234.414,808.544c-.065,0-.131-.006-.2-.011a1.715,1.715,0,0,0-.2-.01.1.1,0,0,1-.1-.1.1.1,0,0,1,.1-.1,1.916,1.916,0,0,1,.228.011.773.773,0,0,0,.37-.023.939.939,0,0,0,.29-.247,1.01,1.01,0,0,1,.392-.308,2.163,2.163,0,0,1,.7-.089,2.015,2.015,0,0,0,.631-.075,1.5,1.5,0,0,0,.456-.29.64.64,0,0,1-.377-.014.921.921,0,0,1-.389-.37c-.1-.137-.188-.266-.318-.3a2.387,2.387,0,0,0-.965.009c-.17.024-.346.049-.519.056a.1.1,0,0,1-.1-.089.1.1,0,0,1,.082-.11c.08-.014.162-.022.244-.029a1.327,1.327,0,0,0,.428-.086,1.562,1.562,0,0,0,.363-.263,1.354,1.354,0,0,1,.534-.336,1.686,1.686,0,0,1,.71.023,1.058,1.058,0,0,0,.736-.032,1.787,1.787,0,0,0,.574-.789,2.314,2.314,0,0,1,.54-.8.345.345,0,0,1,.254-.077.456.456,0,0,0-.231-.073,1.493,1.493,0,0,0-.618.2,1.576,1.576,0,0,1-.737.214,1.954,1.954,0,0,1-.8-.279,1.931,1.931,0,0,0-.677-.254,1.893,1.893,0,0,0-.766.144,4.233,4.233,0,0,1-.411.12.1.1,0,0,1-.12-.076.1.1,0,0,1,.076-.12,4.077,4.077,0,0,0,.391-.115,2.069,2.069,0,0,1,.848-.153,2.1,2.1,0,0,1,.75.276,1.781,1.781,0,0,0,.719.256,1.408,1.408,0,0,0,.642-.194,1.663,1.663,0,0,1,.7-.215.936.936,0,0,1,.561.264,1.826,1.826,0,0,0,.225.158.1.1,0,0,1,.047.119.1.1,0,0,1-.107.069,1.3,1.3,0,0,1-.265-.071c-.169-.058-.285-.092-.356-.033a2.135,2.135,0,0,0-.489.734,1.958,1.958,0,0,1-.649.872,1.214,1.214,0,0,1-.877.059,1.518,1.518,0,0,0-.625-.027,1.19,1.19,0,0,0-.452.293c-.045.039-.09.079-.137.117a1.715,1.715,0,0,1,.528.052.832.832,0,0,1,.428.38.769.769,0,0,0,.3.3.707.707,0,0,0,.437-.043,1.828,1.828,0,0,1,.271-.065.1.1,0,0,1,.107.063.1.1,0,0,1-.035.119c-.091.064-.177.138-.263.211a1.941,1.941,0,0,1-.6.4,2.189,2.189,0,0,1-.693.086,1.985,1.985,0,0,0-.637.077.853.853,0,0,0-.311.254,1.1,1.1,0,0,1-.358.3A.668.668,0,0,1-1234.414,808.544Z" transform="translate(-779.118 -432.773)"/>
    <path id="path3959" d="M-1216.471,866.217a2.215,2.215,0,0,1-.277-.023,2.022,2.022,0,0,0-.251-.022.1.1,0,0,1-.1-.1.1.1,0,0,1,.1-.1,2.216,2.216,0,0,1,.276.023.912.912,0,0,0,.462-.015,2.955,2.955,0,0,0,.723-.5c.073-.061.146-.123.22-.182a1.28,1.28,0,0,1-.308-.151,1.544,1.544,0,0,1-.268-.271c-.037-.044-.074-.089-.114-.131a.1.1,0,0,1,0-.142.1.1,0,0,1,.142,0c.042.045.082.092.122.14a1.361,1.361,0,0,0,.233.237,1.155,1.155,0,0,0,.273.13c.054.02.108.041.16.064a.1.1,0,0,1,.058.081.1.1,0,0,1-.041.091c-.121.087-.236.184-.352.281a3.145,3.145,0,0,1-.774.528A.728.728,0,0,1-1216.471,866.217Z" transform="translate(-796.423 -491.917)"/>
    <path id="path3961" d="M-1328.808,959.967a.667.667,0,0,1-.132-.013,1.042,1.042,0,0,1-.5-.318,1.049,1.049,0,0,0-.356-.258,1.073,1.073,0,0,0-.483,0,2.545,2.545,0,0,1-.28.028.1.1,0,0,1-.1-.1.1.1,0,0,1,.1-.1,2.316,2.316,0,0,0,.258-.026,1.238,1.238,0,0,1,.575.011,1.211,1.211,0,0,1,.43.3.886.886,0,0,0,.4.267.791.791,0,0,0,.43-.07.368.368,0,0,1-.151-.088.735.735,0,0,1-.174-.405.776.776,0,0,0-.086-.267.865.865,0,0,0-.238-.212c-.052-.037-.1-.073-.152-.114a.1.1,0,0,1-.032-.1.1.1,0,0,1,.079-.073,1.859,1.859,0,0,0,.247-.071.973.973,0,0,1,.576-.071,1.642,1.642,0,0,1,.584.361,1.136,1.136,0,0,0,.6.332,1.315,1.315,0,0,0,.708-.255,1.968,1.968,0,0,1,.641-.277.49.49,0,0,1,.283.046.585.585,0,0,0-.277-.281,1.569,1.569,0,0,0-.69-.005,1.447,1.447,0,0,1-.881-.062,1.171,1.171,0,0,1-.475-.662,1.53,1.53,0,0,0-.268-.484,1.5,1.5,0,0,0-.489-.294c-.1-.044-.2-.087-.287-.139a.1.1,0,0,1-.047-.117.1.1,0,0,1,.1-.071c.173.013.355.011.53.009a3.088,3.088,0,0,1,1.093.119,1.878,1.878,0,0,1,.649.482,1.326,1.326,0,0,0,.683.455,3.049,3.049,0,0,0,1.285-.193,4.348,4.348,0,0,1,1.052-.218,1.036,1.036,0,0,1,.5.155.841.841,0,0,0,.415.132,2.773,2.773,0,0,0,.874-.267l.068-.029a1.2,1.2,0,0,1-.558-.155,1.208,1.208,0,0,1-.367-.461.826.826,0,0,0-.353-.41,2.347,2.347,0,0,0-.957-.084,2.349,2.349,0,0,1-1.1-.123,2.436,2.436,0,0,1-.835-.762,2.787,2.787,0,0,0-.631-.637,2.12,2.12,0,0,0-.8-.245c-.147-.025-.3-.051-.445-.091a.1.1,0,0,1-.07-.123.1.1,0,0,1,.123-.07c.136.037.283.063.426.087a2.3,2.3,0,0,1,.871.273,2.977,2.977,0,0,1,.679.68,2.257,2.257,0,0,0,.762.705,2.173,2.173,0,0,0,1,.105,2.528,2.528,0,0,1,1.039.1.979.979,0,0,1,.455.5,1.051,1.051,0,0,0,.3.39,1.2,1.2,0,0,0,.558.131,2.812,2.812,0,0,1,.328.039.1.1,0,0,1,.081.092.1.1,0,0,1-.068.1c-.146.049-.294.112-.438.173a2.965,2.965,0,0,1-.938.282,1,1,0,0,1-.52-.153.879.879,0,0,0-.405-.133,4.2,4.2,0,0,0-1,.21,3.244,3.244,0,0,1-1.37.2,1.489,1.489,0,0,1-.8-.511,1.706,1.706,0,0,0-.576-.436,2.9,2.9,0,0,0-1.023-.107h-.072a1.344,1.344,0,0,1,.4.27,1.7,1.7,0,0,1,.308.546,1.015,1.015,0,0,0,.382.561,1.285,1.285,0,0,0,.761.042,1.735,1.735,0,0,1,.78.014.856.856,0,0,1,.428.44,1.687,1.687,0,0,0,.149.226.1.1,0,0,1,.005.122.1.1,0,0,1-.117.036,1.419,1.419,0,0,1-.2-.1.512.512,0,0,0-.3-.1,1.8,1.8,0,0,0-.574.252,1.479,1.479,0,0,1-.821.281,1.3,1.3,0,0,1-.719-.378,1.475,1.475,0,0,0-.51-.322.817.817,0,0,0-.459.068l-.066.022a.956.956,0,0,1,.267.25.934.934,0,0,1,.115.337.574.574,0,0,0,.117.3.418.418,0,0,0,.276.06,1.228,1.228,0,0,1,.205.015.1.1,0,0,1,.081.1.1.1,0,0,1-.076.1,2.251,2.251,0,0,0-.286.1A1.436,1.436,0,0,1-1328.808,959.967Z" transform="translate(-686.12 -578.637)"/>
    <path id="path3963" d="M-1293.47,1084.715a1.128,1.128,0,0,1-.463-.088,1.988,1.988,0,0,1-.7-.644,1.632,1.632,0,0,0-.68-.6.792.792,0,0,0-.583.154,1.191,1.191,0,0,1-.642.2,1.322,1.322,0,0,1-.678-.343,2.62,2.62,0,0,0-.286-.2.1.1,0,0,1-.037-.137.1.1,0,0,1,.137-.037,2.76,2.76,0,0,1,.308.218,1.16,1.16,0,0,0,.572.3,1.039,1.039,0,0,0,.531-.177.938.938,0,0,1,.742-.166,1.8,1.8,0,0,1,.772.667,1.814,1.814,0,0,0,.628.585,1.571,1.571,0,0,0,.864.022l.17-.025a1.424,1.424,0,0,1-.3-.323,1.233,1.233,0,0,1-.164-.51.672.672,0,0,0-.206-.471,1.512,1.512,0,0,0-.817-.262,1.762,1.762,0,0,1-.9-.288,2.077,2.077,0,0,1-.547-.862,1.943,1.943,0,0,0-.478-.777,2,2,0,0,0-.955-.333,4.606,4.606,0,0,1-.546-.119.1.1,0,0,1-.067-.125.1.1,0,0,1,.125-.066,4.478,4.478,0,0,0,.522.113,2.175,2.175,0,0,1,1.048.376,2.116,2.116,0,0,1,.535.853,1.9,1.9,0,0,0,.487.784,1.591,1.591,0,0,0,.8.246,1.68,1.68,0,0,1,.922.31.86.86,0,0,1,.273.592,1.042,1.042,0,0,0,.135.433,1.164,1.164,0,0,0,.481.41.1.1,0,0,1,.065.111.1.1,0,0,1-.1.084,3.5,3.5,0,0,0-.459.049A3.471,3.471,0,0,1-1293.47,1084.715Z" transform="translate(-718.036 -701.453)"/>
    <path id="path3965" d="M-1352.453,1161.213a.1.1,0,0,1-.086-.049.908.908,0,0,1-.064-.146c-.027-.073-.052-.142-.1-.162a1.954,1.954,0,0,0-.313-.109c-.119-.033-.213-.059-.263-.149s-.031-.227.03-.435a.1.1,0,0,1,.125-.068.1.1,0,0,1,.068.124c-.058.2-.058.262-.047.281a.4.4,0,0,0,.141.053,2.149,2.149,0,0,1,.343.12.381.381,0,0,1,.184.229l.047-.062a.772.772,0,0,0,.2-.389.909.909,0,0,0-.155-.456,2.217,2.217,0,0,1-.126-.261.1.1,0,0,1,.058-.129.1.1,0,0,1,.129.058,2.018,2.018,0,0,0,.115.237,1.066,1.066,0,0,1,.178.562.927.927,0,0,1-.242.5,1.744,1.744,0,0,0-.139.2.1.1,0,0,1-.087.051Z" transform="translate(-664.122 -778.48)"/>
    <path id="path3967" d="M-1610.072,1111.668a.1.1,0,0,1-.048-.012.1.1,0,0,1-.052-.088c0-.076,0-.153.006-.229a2.93,2.93,0,0,0-.005-.435,3.891,3.891,0,0,0-.122-.562,2.4,2.4,0,0,1-.123-.979,2,2,0,0,1,.364-.777,1.825,1.825,0,0,0,.333-.7,1.113,1.113,0,0,0-.145-.589,1.887,1.887,0,0,1-.162-.488,1.514,1.514,0,0,1,.03-.467c.012-.07.024-.141.031-.211a.1.1,0,0,1,.109-.091.1.1,0,0,1,.09.109c-.007.075-.02.151-.033.226a1.336,1.336,0,0,0-.029.406,1.714,1.714,0,0,0,.148.435,1.273,1.273,0,0,1,.159.7,2,2,0,0,1-.363.777,1.824,1.824,0,0,0-.333.7,2.215,2.215,0,0,0,.119.9,4.035,4.035,0,0,1,.128.592,3.138,3.138,0,0,1,.006.465c0,.017,0,.035,0,.052l.113-.052a.909.909,0,0,0,.415-.282,1.473,1.473,0,0,0,.169-.58,1.76,1.76,0,0,1,.176-.623,3.013,3.013,0,0,1,.546-.639,2.421,2.421,0,0,0,.556-.684,1.5,1.5,0,0,0,.064-.734,3.474,3.474,0,0,1-.012-.416.1.1,0,0,1,.082-.093.1.1,0,0,1,.11.058c.039.087.076.176.112.265a4.6,4.6,0,0,0,.232.505.864.864,0,0,0,.159.181.613.613,0,0,1,.242.4.634.634,0,0,1-.184.411.516.516,0,0,0-.144.271,2.643,2.643,0,0,0,.176.831l.033.1a1.167,1.167,0,0,1,.253-.534,1.688,1.688,0,0,1,.579-.345,1.245,1.245,0,0,0,.558-.36.844.844,0,0,0,.061-.573,2.2,2.2,0,0,1-.018-.358.1.1,0,0,1,.056-.084.1.1,0,0,1,.1.007,2.4,2.4,0,0,0,.261.146,1.254,1.254,0,0,1,.525.395,1.154,1.154,0,0,1,.138.568.817.817,0,0,0,.138.5,1.721,1.721,0,0,0,.695.382,2.044,2.044,0,0,1,.734.392.309.309,0,0,1,.087.262l.014-.016a1.253,1.253,0,0,0,.385-.654,1.165,1.165,0,0,0-.256-.681,2.852,2.852,0,0,1-.207-.375.1.1,0,0,1,.053-.132.1.1,0,0,1,.132.053,2.675,2.675,0,0,0,.193.348,1.324,1.324,0,0,1,.285.806,1.415,1.415,0,0,1-.434.767,2.873,2.873,0,0,0-.258.322.1.1,0,0,1-.114.041.1.1,0,0,1-.07-.1,1.059,1.059,0,0,1,.042-.226c.035-.135.055-.227.009-.271a1.873,1.873,0,0,0-.665-.349,1.891,1.891,0,0,1-.773-.434.97.97,0,0,1-.191-.626,1,1,0,0,0-.106-.472,1.1,1.1,0,0,0-.448-.325l-.123-.064c0,.05.009.1.014.153a1,1,0,0,1-.1.71,1.409,1.409,0,0,1-.643.428,1.52,1.52,0,0,0-.513.3,1.089,1.089,0,0,0-.215.489,2.564,2.564,0,0,1-.092.3.1.1,0,0,1-.1.063.1.1,0,0,1-.09-.077c-.034-.141-.079-.28-.124-.419a2.829,2.829,0,0,1-.186-.895.671.671,0,0,1,.186-.393.481.481,0,0,0,.142-.277c0-.093-.086-.171-.181-.26a1.022,1.022,0,0,1-.2-.228c-.051-.092-.1-.186-.139-.281a1.413,1.413,0,0,1-.092.684,2.614,2.614,0,0,1-.6.744,2.818,2.818,0,0,0-.511.595,1.593,1.593,0,0,0-.152.554,1.643,1.643,0,0,1-.2.658,1.066,1.066,0,0,1-.5.357,2.056,2.056,0,0,0-.246.124A.1.1,0,0,1-1610.072,1111.668Z" transform="translate(-414.366 -726.458)"/>
    <path id="path3969" d="M-1466.052,1162.339h-.01a.1.1,0,0,1-.087-.075,1.537,1.537,0,0,1-.031-.174.593.593,0,0,0-.076-.264,1.85,1.85,0,0,0-.392-.358,1.223,1.223,0,0,1-.546-.661,1.857,1.857,0,0,1,.148-.991,1.661,1.661,0,0,0,.139-.891,1.637,1.637,0,0,0-.724-1.165.812.812,0,0,1-.358-.4,4.115,4.115,0,0,1,.016-1.977.1.1,0,0,1,.118-.079.1.1,0,0,1,.079.118,4.125,4.125,0,0,0-.024,1.872.632.632,0,0,0,.284.3,1.83,1.83,0,0,1,.8,1.284,1.828,1.828,0,0,1-.145,1,1.688,1.688,0,0,0-.142.883,1.067,1.067,0,0,0,.471.545,2,2,0,0,1,.434.4.617.617,0,0,1,.1.259.411.411,0,0,0,.111-.268,1.428,1.428,0,0,0-.258-.539,1.131,1.131,0,0,1-.274-.8,1.862,1.862,0,0,1,.563-.892,1.886,1.886,0,0,0,.5-.734,2.258,2.258,0,0,0-.065-1.068,5.078,5.078,0,0,1-.1-.575.1.1,0,0,1,.09-.11.1.1,0,0,1,.11.09,4.914,4.914,0,0,0,.1.552,2.445,2.445,0,0,1,.063,1.163,2.054,2.054,0,0,1-.551.818,1.693,1.693,0,0,0-.512.791.975.975,0,0,0,.245.658,1.6,1.6,0,0,1,.288.62.626.626,0,0,1-.169.445,1.193,1.193,0,0,0-.106.165A.1.1,0,0,1-1466.052,1162.339Z" transform="translate(-552.612 -774.304)"/>
    <path id="path3971" d="M-1480.439,1237.547a.1.1,0,0,1-.064-.023.1.1,0,0,1-.034-.1l.02-.094a2.591,2.591,0,0,0-.073-1.89.1.1,0,0,1,.048-.134.1.1,0,0,1,.134.048,2.668,2.668,0,0,1,.109,1.919,1.781,1.781,0,0,0,.937-1.313l.058-.184a.1.1,0,0,1,.126-.065.1.1,0,0,1,.065.126l-.058.183a1.93,1.93,0,0,1-1.229,1.518A.1.1,0,0,1-1480.439,1237.547Z" transform="translate(-540.476 -852.01)"/>
    <path id="path3973" d="M-1664.791,1119.493a.1.1,0,0,1-.032-.005.1.1,0,0,1-.068-.1c0-.146-.009-.3-.021-.446a2.521,2.521,0,0,1,.045-.933,1.016,1.016,0,0,1,.347-.444.851.851,0,0,0,.288-.354.562.562,0,0,0-.073-.348.81.81,0,0,1-.094-.438,2.354,2.354,0,0,1,.29-.734c.059-.111.118-.221.167-.335a.1.1,0,0,1,.132-.052.1.1,0,0,1,.052.132c-.051.119-.113.234-.174.35a2.172,2.172,0,0,0-.269.67.657.657,0,0,0,.081.329.72.72,0,0,1,.08.482,1.007,1.007,0,0,1-.348.448.859.859,0,0,0-.287.352,2.336,2.336,0,0,0-.037.86c0,.04.006.081.009.122l.012-.021a1.269,1.269,0,0,1,.489-.588.763.763,0,0,1,.556.011.628.628,0,0,0,.409.029,1.47,1.47,0,0,0,.514-.527,3.408,3.408,0,0,1,.254-.33.1.1,0,0,1,.142-.007.1.1,0,0,1,.007.142,3.208,3.208,0,0,0-.238.311,1.639,1.639,0,0,1-.591.592.785.785,0,0,1-.548-.016.608.608,0,0,0-.412-.026,1.109,1.109,0,0,0-.4.5,2.707,2.707,0,0,1-.2.326A.1.1,0,0,1-1664.791,1119.493Z" transform="translate(-361.427 -735.45)"/>
    <path id="path3975" d="M-1794.786,1014.512a.1.1,0,0,1-.049-.013.1.1,0,0,1-.049-.11c.04-.175.064-.362.087-.543a2.874,2.874,0,0,1,.293-1.1.782.782,0,0,1,.5-.306.978.978,0,0,0,.34-.15,2.147,2.147,0,0,0,.667-.8,1.938,1.938,0,0,0,.083-.687,1.787,1.787,0,0,1,.147-.86,2.255,2.255,0,0,1,.764-.729,4.577,4.577,0,0,0,.4-.3.1.1,0,0,1,.142.009.1.1,0,0,1-.01.142,4.7,4.7,0,0,1-.422.316,2.077,2.077,0,0,0-.7.659,1.617,1.617,0,0,0-.123.766,2.109,2.109,0,0,1-.1.758,2.316,2.316,0,0,1-.725.88,1.134,1.134,0,0,1-.41.188.634.634,0,0,0-.387.215,2.686,2.686,0,0,0-.267,1.027c-.01.077-.02.155-.031.234.072-.078.143-.158.213-.236a4.459,4.459,0,0,1,.971-.895,1.881,1.881,0,0,1,.777-.206,1.477,1.477,0,0,0,.749-.218,2.214,2.214,0,0,0,.564-.82,3.431,3.431,0,0,1,.4-.68c.27-.328.443-.459.58-.439a.182.182,0,0,1,.142.116c.087.2-.086.353-.225.474a.653.653,0,0,0-.2.231.964.964,0,0,0-.01.374,1.013,1.013,0,0,1-.034.494.728.728,0,0,1-.335.376.864.864,0,0,0,.323-.028l.063-.013a.54.54,0,0,0,.231-.153,1.412,1.412,0,0,1,.141-.118.1.1,0,0,1,.14.025.1.1,0,0,1-.025.14,1.2,1.2,0,0,0-.12.1.7.7,0,0,1-.327.2l-.061.013a.632.632,0,0,1-.669-.128.1.1,0,0,1-.019-.1.1.1,0,0,1,.075-.066.527.527,0,0,0,.4-.329.856.856,0,0,0,.02-.4,1.124,1.124,0,0,1,.018-.453.775.775,0,0,1,.261-.322c.125-.108.2-.179.173-.242-.007.006-.11.039-.384.371a3.291,3.291,0,0,0-.377.641,2.394,2.394,0,0,1-.621.89,1.645,1.645,0,0,1-.848.259,1.707,1.707,0,0,0-.7.178,4.3,4.3,0,0,0-.925.856c-.144.161-.292.328-.45.481A.1.1,0,0,1-1794.786,1014.512Z" transform="translate(-235.199 -632.087)"/>
    <path id="path3977" d="M-1947.686,890.406a.1.1,0,0,1-.087-.051.1.1,0,0,1,.018-.122,2.086,2.086,0,0,1,.215-.173.837.837,0,0,0,.314-.324,2.779,2.779,0,0,0,.134-.829,2.006,2.006,0,0,1,.31-1.162,2.282,2.282,0,0,1,1.079-.636,2.5,2.5,0,0,0,.916-.48,2.79,2.79,0,0,0,.559-.962,4.056,4.056,0,0,1,.412-.806,2.808,2.808,0,0,1,1.007-.889c-.1,0-.2-.015-.3-.025a1.212,1.212,0,0,0-.781.075l-1.229.778a.1.1,0,0,1-.117-.007.1.1,0,0,1-.031-.113,2.546,2.546,0,0,0,.124-.562,1.9,1.9,0,0,1,1-1.575,2,2,0,0,1,.723-.239,1.512,1.512,0,0,0,.72-.265,1.754,1.754,0,0,0,.423-.732,2.65,2.65,0,0,1,.32-.645.926.926,0,0,1,.381-.262,1.666,1.666,0,0,0,.179-.091.1.1,0,0,1,.138.033.1.1,0,0,1-.033.138,1.9,1.9,0,0,1-.2.1.768.768,0,0,0-.3.2,2.466,2.466,0,0,0-.294.6,1.927,1.927,0,0,1-.479.811,1.68,1.68,0,0,1-.813.31,1.824,1.824,0,0,0-.652.21,1.708,1.708,0,0,0-.911,1.435c-.016.112-.032.226-.058.342l1-.636a1.372,1.372,0,0,1,.909-.105,1.729,1.729,0,0,0,.652-.009l1.76-.513a.1.1,0,0,1,.121.059.1.1,0,0,1-.047.126,5.215,5.215,0,0,1-1.077.376,3.045,3.045,0,0,0-1.979,1.191,3.915,3.915,0,0,0-.39.767,2.981,2.981,0,0,1-.6,1.028,2.683,2.683,0,0,1-.987.524,2.106,2.106,0,0,0-.991.571,1.833,1.833,0,0,0-.267,1.05,2.92,2.92,0,0,1-.148.89.7.7,0,0,1-.192.262,3.986,3.986,0,0,0,1.126-.5,1.3,1.3,0,0,0,.376-.486,1.458,1.458,0,0,1,.444-.558,2.254,2.254,0,0,1,.988-.292,2.183,2.183,0,0,0,.878-.242,2.743,2.743,0,0,0,.7-.749,2.892,2.892,0,0,1,.771-.807,2.588,2.588,0,0,1,1.119-.285,5.24,5.24,0,0,0,.551-.075.1.1,0,0,1,.119.077.1.1,0,0,1-.077.119,5.376,5.376,0,0,1-.572.079,2.4,2.4,0,0,0-1.034.257,2.7,2.7,0,0,0-.714.755,2.934,2.934,0,0,1-.759.8,2.362,2.362,0,0,1-.957.271,2.075,2.075,0,0,0-.9.26,1.284,1.284,0,0,0-.38.489,1.478,1.478,0,0,1-.438.555,5.3,5.3,0,0,1-1.669.669A.1.1,0,0,1-1947.686,890.406Z" transform="translate(-86.682 -507.183)"/>
    <path id="path3979" d="M-1820.53,963.156a2.557,2.557,0,0,1-.412-.045,2.762,2.762,0,0,0-.334-.042.1.1,0,0,1-.091-.068.1.1,0,0,1,.031-.109c.1-.086.214-.165.325-.244a2.875,2.875,0,0,0,.582-.5,4.026,4.026,0,0,0,.433-.721,4.713,4.713,0,0,1,.4-.689,3.722,3.722,0,0,1,.905-.9,1.319,1.319,0,0,1,.537-.169,2.465,2.465,0,0,0,.25-.049.1.1,0,0,1,.123.071.1.1,0,0,1-.071.123,2.709,2.709,0,0,1-.27.054,1.155,1.155,0,0,0-.458.138,3.53,3.53,0,0,0-.855.857,4.531,4.531,0,0,0-.386.66,4.244,4.244,0,0,1-.456.756,3.073,3.073,0,0,1-.621.536l-.119.086.1.017a1.251,1.251,0,0,0,.627,0,2.573,2.573,0,0,0,.712-.464,2.961,2.961,0,0,1,.717-.477,1.087,1.087,0,0,1,.539-.036,1.06,1.06,0,0,0,.411-.009,1.449,1.449,0,0,0,.452-.28c.078-.062.156-.125.239-.179a.1.1,0,0,1,.139.029.1.1,0,0,1-.029.139c-.077.051-.15.109-.224.168a1.621,1.621,0,0,1-.518.315,1.22,1.22,0,0,1-.491.017.927.927,0,0,0-.442.021,2.77,2.77,0,0,0-.667.447,2.76,2.76,0,0,1-.77.5A.911.911,0,0,1-1820.53,963.156Z" transform="translate(-209.473 -584.227)"/>
    <path id="path3981" d="M-1847.069,826.245a4.756,4.756,0,0,1-.764-.083c-.18-.03-.366-.06-.546-.073a.1.1,0,0,1-.09-.076.1.1,0,0,1,.044-.109,3.538,3.538,0,0,1,.359-.187,1.538,1.538,0,0,0,.6-.4,2.748,2.748,0,0,0,.37-.852,2.077,2.077,0,0,1,.611-1.112,1.345,1.345,0,0,1,1.107-.09,2.991,2.991,0,0,0,.531.069.1.1,0,0,1,.1.1.1.1,0,0,1-.1.1,3.135,3.135,0,0,1-.568-.073,1.192,1.192,0,0,0-.947.052,1.9,1.9,0,0,0-.542,1.012,2.9,2.9,0,0,1-.4.914,1.709,1.709,0,0,1-.671.462l-.06.029.24.038a2.98,2.98,0,0,0,1.068.049,1.809,1.809,0,0,0,.672-.359,2.462,2.462,0,0,1,.6-.354,1.182,1.182,0,0,1,.532-.023,2.2,2.2,0,0,0,.238.018.1.1,0,0,1,.1.1.1.1,0,0,1-.1.1,2.446,2.446,0,0,1-.26-.019,1.019,1.019,0,0,0-.444.013,2.281,2.281,0,0,0-.554.328,1.984,1.984,0,0,1-.75.393A1.9,1.9,0,0,1-1847.069,826.245Z" transform="translate(-183.15 -451.711)"/>
    <path id="path3983" d="M-2032.847,746.48a2.53,2.53,0,0,1-1.421-.636,3.57,3.57,0,0,0-.968-.556,3.325,3.325,0,0,0-1.108-.082c-.193.007-.392.014-.587,0a.1.1,0,0,1-.094-.086.1.1,0,0,1,.066-.109c.24-.085.482-.189.716-.289a6.3,6.3,0,0,1,1.493-.494,1.676,1.676,0,0,1,.762.123,1.193,1.193,0,0,0,.754.087,7.437,7.437,0,0,0,1.7-1,7.462,7.462,0,0,1,1.779-1.031,4.387,4.387,0,0,1,1.721-.129c.28.016.57.032.847.021a.1.1,0,0,1,.1.1.1.1,0,0,1-.1.1c-.287.012-.582-.005-.866-.021a4.172,4.172,0,0,0-1.643.118,7.306,7.306,0,0,0-1.73,1.006,7.589,7.589,0,0,1-1.75,1.021,1.352,1.352,0,0,1-.885-.084,1.511,1.511,0,0,0-.67-.116,6.153,6.153,0,0,0-1.444.48l-.224.1h.038a3.526,3.526,0,0,1,1.174.091,3.722,3.722,0,0,1,1.025.585,2.323,2.323,0,0,0,1.319.6,5.094,5.094,0,0,0,2.064-.643,6.85,6.85,0,0,1,1.708-.625,1.367,1.367,0,0,1,.859.237,2.775,2.775,0,0,0,.378.177.1.1,0,0,1,.062.128.1.1,0,0,1-.128.062,2.956,2.956,0,0,1-.406-.189,1.208,1.208,0,0,0-.731-.217,6.7,6.7,0,0,0-1.657.609,5.319,5.319,0,0,1-2.147.662Z" transform="translate(0 -373.105)"/>
    <path id="path3985" d="M-1963.388,709.519a.1.1,0,0,1-.038-.008,2.27,2.27,0,0,1-.239-.121.944.944,0,0,0-.421-.158,3.049,3.049,0,0,0-.783.127,2.628,2.628,0,0,1-1.011.118,1.129,1.129,0,0,1-.592-.365,1.467,1.467,0,0,0-.358-.278,2.525,2.525,0,0,0-.6-.169c-.109-.021-.218-.043-.325-.071a.1.1,0,0,1-.075-.1.1.1,0,0,1,.076-.1c.18-.044.363-.108.54-.169a3.156,3.156,0,0,1,1.146-.243.833.833,0,0,1,.5.3c.163.158.271.251.387.218a1.793,1.793,0,0,0,.761-.59,2.084,2.084,0,0,1,.81-.637,3.669,3.669,0,0,1,1.619-.05c.144.017.287.033.428.045a2.794,2.794,0,0,1,.639.156c.1.033.2.066.3.092a.1.1,0,0,1,.071.123.1.1,0,0,1-.123.071c-.1-.028-.207-.062-.311-.1a2.609,2.609,0,0,0-.593-.147c-.143-.012-.289-.029-.435-.046a3.522,3.522,0,0,0-1.531.041,1.909,1.909,0,0,0-.728.582,1.964,1.964,0,0,1-.854.648c-.236.068-.419-.11-.581-.266-.121-.117-.246-.237-.371-.242a2.96,2.96,0,0,0-1.073.232l-.178.061a2.468,2.468,0,0,1,.581.171,1.637,1.637,0,0,1,.41.314.97.97,0,0,0,.483.312,2.443,2.443,0,0,0,.934-.114,3.241,3.241,0,0,1,.835-.133,1.1,1.1,0,0,1,.516.183,2.057,2.057,0,0,0,.217.111.1.1,0,0,1,.055.131A.1.1,0,0,1-1963.388,709.519Z" transform="translate(-67.214 -339.011)"/>
    <path id="path3987" d="M-1797.52,371.409a.1.1,0,0,1-.064-.023.1.1,0,0,1-.013-.141,1.653,1.653,0,0,0,.138-.209.859.859,0,0,1,.394-.415,3.622,3.622,0,0,1,1.063-.18,2.359,2.359,0,0,0,1.269-.319,2.95,2.95,0,0,0,.814-1.193,3.591,3.591,0,0,1,.754-1.175,1.253,1.253,0,0,1,.81-.233,1.2,1.2,0,0,0,.67-.161,1.286,1.286,0,0,0,.356-.7c.012-.043.025-.086.038-.13a.954.954,0,0,1-.443.209,2.94,2.94,0,0,1-.848-.064,1.917,1.917,0,0,0-1.012,0,2.215,2.215,0,0,0-.815.69,2.426,2.426,0,0,1-.883.742,2.507,2.507,0,0,1-1.178.071,2.773,2.773,0,0,0-.963.015,1.684,1.684,0,0,0-.564.293,2.125,2.125,0,0,1-.262.489c-.091.122-.243.076-.344.046a.564.564,0,0,0-.11-.026.1.1,0,0,1-.091-.075.1.1,0,0,1,.043-.11c.135-.086.267-.191.394-.292.068-.053.135-.107.2-.159.025-.064.049-.129.073-.2a2.539,2.539,0,0,1,.411-.808.589.589,0,0,1,.441-.152.477.477,0,0,0,.3-.078,1,1,0,0,0,.2-.5l.018-.078-.025.014a1.182,1.182,0,0,1-.528.2,2.055,2.055,0,0,1-.7-.134,1.218,1.218,0,0,0-.806-.078c-.154.062-.177.283-.2.516a1.823,1.823,0,0,1-.069.385.1.1,0,0,1-.1.068.1.1,0,0,1-.094-.073,1.08,1.08,0,0,0-.1-.207c-.094-.167-.21-.374-.064-.541a2.627,2.627,0,0,1,.909-.589,2.076,2.076,0,0,0,.906-.629,1.135,1.135,0,0,0,.058-.8,1.861,1.861,0,0,1-.01-.746.643.643,0,0,1,.256-.332.733.733,0,0,0-.46.125.792.792,0,0,0-.172.436.782.782,0,0,1-.294.578,2.976,2.976,0,0,1-1.159.321,3.06,3.06,0,0,0-1.017.255,1.159,1.159,0,0,0-.419.53,2.814,2.814,0,0,1-.2.341.1.1,0,0,1-.1.04.1.1,0,0,1-.078-.073,1.567,1.567,0,0,0-.1-.244.8.8,0,0,1-.106-.592.933.933,0,0,1,.4-.434.938.938,0,0,0,.318-.3,1.389,1.389,0,0,0,.106-.579q0-.048,0-.1l-.021.017a2.111,2.111,0,0,1-.451.3,1.8,1.8,0,0,1-.48.118,1.089,1.089,0,0,0-.542.176,1.449,1.449,0,0,0-.364.608,3.381,3.381,0,0,1-.165.366.1.1,0,0,1-.115.048.1.1,0,0,1-.073-.1,2.09,2.09,0,0,0-.025-.338,1.026,1.026,0,0,1,.084-.739,5.548,5.548,0,0,1,1.107-1.1,4.042,4.042,0,0,0,1.239-1.366,1.944,1.944,0,0,0-.068-1.3,3.833,3.833,0,0,1-.166-.89,6.344,6.344,0,0,1,.083-1c.012-.088.024-.177.035-.265-.088.057-.18.109-.271.161a1.38,1.38,0,0,0-.7.624,3.747,3.747,0,0,0-.172,1.068,1.922,1.922,0,0,1-.446,1.386,4.85,4.85,0,0,1-2.036.977,6.434,6.434,0,0,0-1.584.633c-.452.285-.453.853-.454,1.572v.146a.1.1,0,0,1-.086.1.1.1,0,0,1-.11-.07c-.037-.124-.068-.251-.1-.379a2.721,2.721,0,0,0-.271-.786,5.933,5.933,0,0,0-.808-.988c-.1-.1-.192-.2-.285-.306-.216-.239-.45-.471-.676-.7l-.163-.162q0,.089.009.177c.015.289.031.587.021.883a4.045,4.045,0,0,1-.087.622c-.014.072-.028.143-.04.213a3.452,3.452,0,0,1,.7,1.891.1.1,0,0,1-.065.109.1.1,0,0,1-.12-.043,4.373,4.373,0,0,0-.265-.374,2.172,2.172,0,0,1-.464-.845,1.9,1.9,0,0,1,0-.677,2.381,2.381,0,0,0-.515-.4,1.856,1.856,0,0,0-.526-.179,1.455,1.455,0,0,1-.713-.312,2.024,2.024,0,0,1-.421-.675,1.935,1.935,0,0,0-.359-.6,2.517,2.517,0,0,0-.744-.451,1.046,1.046,0,0,1,.259.485,2.344,2.344,0,0,1-.076.879,1.448,1.448,0,0,0,0,.994,1.7,1.7,0,0,0,.868.621,2.282,2.282,0,0,1,.883.572,2.312,2.312,0,0,1,.389,1.074,4.7,4.7,0,0,0,.12.536.1.1,0,0,1-.03.106.1.1,0,0,1-.109.014c-.086-.042-.177-.076-.268-.11a1.642,1.642,0,0,1-.554-.295,4.438,4.438,0,0,1-.59-.714,4.338,4.338,0,0,0-.557-.678,5.361,5.361,0,0,0-.862-.6,3.831,3.831,0,0,1-1.178-.948,3.721,3.721,0,0,1-.531-1.488c-.029-.14-.058-.283-.091-.424-.053.143-.111.276-.169.407a3.129,3.129,0,0,0-.339,1.665,2.9,2.9,0,0,0,1.477,2.3,3.206,3.206,0,0,1,.926.89,7.409,7.409,0,0,1,.348.71c.09.2.182.408.288.6a2.494,2.494,0,0,0,.219.317c.042.054.083.109.123.164a.1.1,0,0,1,0,.12.1.1,0,0,1-.116.031,1.576,1.576,0,0,0-.219-.064.838.838,0,0,1-.475-.23,1.9,1.9,0,0,1-.311-.633,1.418,1.418,0,0,0-.335-.626,3.551,3.551,0,0,0-1.109-.587c-.108-.042-.218-.085-.327-.131l.048.082a5.706,5.706,0,0,1,.38.727,4.31,4.31,0,0,1,.2.7,2.683,2.683,0,0,0,.327.938,2.485,2.485,0,0,0,.764.651c.149.1.3.2.444.309a.1.1,0,0,1,.016.141.1.1,0,0,1-.141.016c-.133-.106-.283-.2-.428-.3a2.672,2.672,0,0,1-.821-.708,2.871,2.871,0,0,1-.356-1.006,4.186,4.186,0,0,0-.186-.67,5.57,5.57,0,0,0-.367-.7c-.069-.117-.137-.235-.2-.354a.1.1,0,0,1,.016-.117.1.1,0,0,1,.117-.02c.189.094.395.174.594.251a3.754,3.754,0,0,1,1.169.624,1.586,1.586,0,0,1,.391.711,1.718,1.718,0,0,0,.274.568.6.6,0,0,0,.319.153,2.2,2.2,0,0,1-.176-.265c-.11-.2-.2-.412-.3-.617a7.333,7.333,0,0,0-.338-.691,3.068,3.068,0,0,0-.872-.829,3.065,3.065,0,0,1-1.558-2.45,3.338,3.338,0,0,1,.355-1.758,4.348,4.348,0,0,0,.262-.709.1.1,0,0,1,.094-.076.1.1,0,0,1,.1.07,7.731,7.731,0,0,1,.185.772,3.525,3.525,0,0,0,.5,1.41,3.631,3.631,0,0,0,1.12.894,5.5,5.5,0,0,1,.894.627,4.478,4.478,0,0,1,.584.709,4.3,4.3,0,0,0,.562.683,1.472,1.472,0,0,0,.489.255l.091.035c-.028-.118-.05-.238-.072-.356a2.129,2.129,0,0,0-.347-.984,2.1,2.1,0,0,0-.809-.515,1.863,1.863,0,0,1-.962-.708,1.611,1.611,0,0,1-.024-1.132,2.2,2.2,0,0,0,.075-.8,1.1,1.1,0,0,0-.3-.494,2.618,2.618,0,0,1-.213-.266.1.1,0,0,1,.01-.124.1.1,0,0,1,.123-.019c.128.073.269.138.4.2a2.713,2.713,0,0,1,.8.491,2.114,2.114,0,0,1,.4.656,1.849,1.849,0,0,0,.376.612,1.283,1.283,0,0,0,.621.263,2.012,2.012,0,0,1,.582.2,2.631,2.631,0,0,1,.455.333l.015-.076a3.921,3.921,0,0,0,.083-.591c.01-.287-.005-.581-.021-.865-.008-.146-.016-.293-.02-.439a.1.1,0,0,1,.061-.1.1.1,0,0,1,.111.022c.113.116.228.23.343.344.228.226.463.46.683.7.093.1.187.2.282.3a6.077,6.077,0,0,1,.835,1.023,2.089,2.089,0,0,1,.206.5,1.316,1.316,0,0,1,.535-1.144,6.583,6.583,0,0,1,1.633-.655,4.631,4.631,0,0,0,1.955-.929,1.752,1.752,0,0,0,.385-1.254,3.911,3.911,0,0,1,.184-1.124,1.542,1.542,0,0,1,.787-.73,3.217,3.217,0,0,0,.432-.276.1.1,0,0,1,.111-.01.1.1,0,0,1,.052.1c-.016.165-.039.33-.061.495a6.184,6.184,0,0,0-.082.967,3.688,3.688,0,0,0,.159.843,2.115,2.115,0,0,1,.057,1.433,4.252,4.252,0,0,1-1.295,1.439,5.4,5.4,0,0,0-1.069,1.054.823.823,0,0,0-.054.568,1.6,1.6,0,0,1,.42-.682,1.252,1.252,0,0,1,.64-.219,1.628,1.628,0,0,0,.427-.1,1.927,1.927,0,0,0,.407-.277c.069-.056.139-.112.211-.164a.1.1,0,0,1,.111,0,.1.1,0,0,1,.047.1,2.98,2.98,0,0,0-.025.311,1.558,1.558,0,0,1-.129.662,1.1,1.1,0,0,1-.381.369.78.78,0,0,0-.329.334.644.644,0,0,0,.1.443l.035.078c.027-.049.054-.1.081-.151a1.321,1.321,0,0,1,.5-.614,3.255,3.255,0,0,1,1.083-.276,2.785,2.785,0,0,0,1.083-.294c.128-.077.163-.256.2-.446a.939.939,0,0,1,.234-.546.943.943,0,0,1,.62-.179,1.864,1.864,0,0,0,.286-.029.1.1,0,0,1,.109.05.1.1,0,0,1-.017.119,1.613,1.613,0,0,1-.2.161c-.121.088-.236.171-.266.286a1.721,1.721,0,0,0,.015.665,1.292,1.292,0,0,1-.09.941,2.253,2.253,0,0,1-.987.7l-.04.019a2.551,2.551,0,0,1,.537.127,1.913,1.913,0,0,0,.627.125,1.022,1.022,0,0,0,.437-.172,2.43,2.43,0,0,1,.244-.128.1.1,0,0,1,.109.019.1.1,0,0,1,.025.107,2.252,2.252,0,0,0-.075.282,1.155,1.155,0,0,1-.255.593.625.625,0,0,1-.431.138.443.443,0,0,0-.3.083,2.163,2.163,0,0,0-.351.68,1.557,1.557,0,0,1,.393-.167,2.962,2.962,0,0,1,1.033-.02,2.325,2.325,0,0,0,1.085-.058,2.245,2.245,0,0,0,.806-.687,2.394,2.394,0,0,1,.895-.746,2.093,2.093,0,0,1,1.118-.007,2.791,2.791,0,0,0,.789.063.9.9,0,0,0,.4-.206,2.183,2.183,0,0,1,.222-.15.1.1,0,0,1,.117.014.1.1,0,0,1,.023.116,2.918,2.918,0,0,0-.137.4,1.447,1.447,0,0,1-.426.8,1.355,1.355,0,0,1-.781.2,1.1,1.1,0,0,0-.687.181,3.445,3.445,0,0,0-.708,1.112,3.142,3.142,0,0,1-.877,1.269,2.538,2.538,0,0,1-1.374.357,3.478,3.478,0,0,0-1,.167.708.708,0,0,0-.294.33,1.842,1.842,0,0,1-.156.234A.1.1,0,0,1-1797.52,371.409Zm-.948-2.561a.115.115,0,0,0,.05,0q.032-.043.06-.088Zm-.651-2.145a1.244,1.244,0,0,0-.128.127c-.045.052-.005.142.066.273l.006-.058A2.1,2.1,0,0,1-1799.118,366.7Zm-9.644-2.8a1.451,1.451,0,0,0,.018.427,2,2,0,0,0,.427.764l.02.026A2.9,2.9,0,0,0-1808.763,363.9Z" transform="translate(-215.412)"/>
    <g id="Сгруппировать_2549" data-name="Сгруппировать 2549" transform="translate(-2028.144 365.002)">
      <path id="path3989" d="M-2843.716,650.884a7.6,7.6,0,0,1-7.412,7.784,7.6,7.6,0,0,1-7.412-7.784,7.6,7.6,0,0,1,7.412-7.784A7.6,7.6,0,0,1-2843.716,650.884Z" transform="translate(2858.54 -643.1)" fill="#ff0"/>
    </g>
    <path id="path3989_-_Рамка" data-name="path3989 - Рамка" d="M-2858.413,635.6a7.828,7.828,0,0,1,7.627,8,7.828,7.828,0,0,1-7.627,8,7.828,7.828,0,0,1-7.627-8A7.828,7.828,0,0,1-2858.413,635.6Zm0,15.568a7.4,7.4,0,0,0,7.2-7.569,7.4,7.4,0,0,0-7.2-7.569,7.4,7.4,0,0,0-7.2,7.569A7.4,7.4,0,0,0-2858.413,651.168Z" transform="translate(837.682 -270.813)" fill="#021732"/>
  </g>
</svg>
