<svg xmlns="http://www.w3.org/2000/svg" width="22.05" height="23.993" viewBox="0 0 22.05 23.993">
  <path d="M28.735,39.8a2.785,2.785,0,0,0-2.384-2.167,74.08,74.08,0,0,0-8.256-.305,74.1,74.1,0,0,0-8.257.305A2.785,2.785,0,0,0,7.456,39.8a23.609,23.609,0,0,0-.389,5.212,23.6,23.6,0,0,0,.384,5.212,2.785,2.785,0,0,0,2.383,2.167,74.085,74.085,0,0,0,8.256.306,74.032,74.032,0,0,0,8.257-.306,2.785,2.785,0,0,0,2.383-2.167,23.622,23.622,0,0,0,.386-5.212A23.639,23.639,0,0,0,28.735,39.8ZM13.356,41.092h-1.6v8.48H10.278v-8.48H8.711V39.7h4.645Zm4.026,8.48H16.049v-.8a2.135,2.135,0,0,1-1.523.9.817.817,0,0,1-.858-.546,3.753,3.753,0,0,1-.118-1.093V42.218h1.332v5.414a4.148,4.148,0,0,0,.012.518c.032.207.133.312.312.312.267,0,.547-.206.842-.624v-5.62h1.333v7.354Zm5.062-2.207a5.874,5.874,0,0,1-.135,1.482,1.055,1.055,0,0,1-1.064.826,1.816,1.816,0,0,1-1.377-.813v.713H18.536V39.7h1.332v3.223a1.8,1.8,0,0,1,1.377-.8,1.054,1.054,0,0,1,1.064.83,5.647,5.647,0,0,1,.135,1.478Zm5.029-1.227H24.809v1.3c0,.681.223,1.021.681,1.021a.573.573,0,0,0,.6-.534,8.384,8.384,0,0,0,.03-.9h1.359v.194c0,.43-.016.725-.029.858a1.9,1.9,0,0,1-.311.8,1.844,1.844,0,0,1-1.612.8,1.908,1.908,0,0,1-1.613-.753,2.848,2.848,0,0,1-.428-1.729V44.616a2.862,2.862,0,0,1,.412-1.733,1.894,1.894,0,0,1,1.6-.754,1.851,1.851,0,0,1,1.572.754,2.89,2.89,0,0,1,.413,1.733v1.522Z" transform="translate(-7.067 -28.701)" fill="#fff"/>
  <path d="M69.326,58.163q-.668,0-.669,1.02v.68h1.332v-.68C69.989,58.5,69.766,58.163,69.326,58.163Z" transform="translate(-50.915 -42.868)" fill="#fff"/>
  <path d="M52.17,58.163a.955.955,0,0,0-.665.324v4.482a.95.95,0,0,0,.665.328c.384,0,.58-.328.58-.992V59.166C52.749,58.5,52.554,58.163,52.17,58.163Z" transform="translate(-38.704 -43.107)" fill="#fff"/>
  <path d="M53.957,16.354a2.163,2.163,0,0,0,1.538-.913v.811h1.347V8.82H55.5V14.5c-.3.422-.581.63-.851.63-.18,0-.286-.107-.316-.315a3.124,3.124,0,0,1-.016-.523V8.82H52.97V14.7a3.755,3.755,0,0,0,.119,1.105A.827.827,0,0,0,53.957,16.354Z" transform="translate(-39.747 -6.279)" fill="#fff"/>
  <path d="M19.228,5.934V9.972h1.493V5.934L22.517,0h-1.51L19.988,3.916,18.928,0H17.357c.315.924.642,1.853.957,2.779A24.566,24.566,0,0,1,19.228,5.934Z" transform="translate(-14.393)" fill="#fff"/>
  <path d="M37.3,16.132a1.836,1.836,0,0,0,1.571-.761,2.907,2.907,0,0,0,.418-1.748v-2.6a2.913,2.913,0,0,0-.418-1.751,2,2,0,0,0-3.139,0,2.888,2.888,0,0,0-.421,1.751v2.6a2.881,2.881,0,0,0,.421,1.748A1.835,1.835,0,0,0,37.3,16.132Zm-.643-5.381c0-.688.209-1.03.643-1.03s.642.343.642,1.03v3.126c0,.688-.208,1.032-.642,1.032s-.643-.344-.643-1.032Z" transform="translate(-27.176 -6.057)" fill="#fff"/>
</svg>
